<svg width="64" height="64" viewBox="0 0 64 64" fill="none" xmlns="http://www.w3.org/2000/svg">
<rect width="64" height="64" rx="20" fill="white"/>
<circle cx="23" cy="35" r="20" fill="#005BAC" fill-opacity="0.4"/>
<path d="M37.7885 49.7973C34.1194 53.1621 29.1801 55.2227 23.75 55.2227C12.4341 55.2227 3.25 46.2742 3.25 35.2227C3.25 24.1711 12.4341 15.2227 23.75 15.2227C35.0659 15.2227 44.25 24.1711 44.25 35.2227C44.25 40.6067 42.0703 45.4916 38.5262 49.0858C40.9588 50.6785 43.2913 51.8171 45.5131 52.486L49.8057 47.7165C49.8059 47.7162 49.8062 47.7158 49.8065 47.7155C50.4587 46.9759 50.8939 46.3903 51.1259 45.9539L51.1265 45.9529C51.3602 45.518 51.4746 45.075 51.4746 44.6211C51.4746 44.0077 51.2909 43.5242 50.9365 43.1493C50.5864 42.7789 50.117 42.5859 49.501 42.5859C48.7419 42.5859 48.1833 42.8016 47.7904 43.2047C47.4025 43.6028 47.1934 44.1718 47.1934 44.9463L46.9434 45.1963H45.3174L45.0674 44.9463C45.0674 43.7098 45.4668 42.6893 46.2779 41.9096L46.2786 41.9089C47.0962 41.1291 48.1794 40.75 49.501 40.75C50.7346 40.75 51.7408 41.0759 52.4897 41.7548M37.7885 49.7973L52.3223 41.9404M37.7885 49.7973C40.3757 51.512 42.8895 52.7523 45.3135 53.4701M37.7885 49.7973L45.5635 53.5424V53.2825C45.4803 53.2587 45.3969 53.2342 45.3135 53.2092V53.4701M52.4897 41.7548C52.4899 41.7549 52.49 41.7551 52.4902 41.7552L52.3223 41.9404M52.4897 41.7548C52.4896 41.7547 52.4895 41.7546 52.4893 41.7544L52.3223 41.9404M52.4897 41.7548C53.2401 42.429 53.6094 43.329 53.6094 44.4277C53.6094 45.7863 52.7498 47.3468 51.1349 49.0973L51.135 49.0972L50.9512 48.9277C52.5566 47.1875 53.3594 45.6875 53.3594 44.4277C53.3594 43.3906 53.0137 42.5615 52.3223 41.9404M45.3135 53.4701V53.9727L45.5635 54.2227H53.9482L54.1982 53.9727V53.5389M11.3597 47.2276C8.19596 44.1425 6.25 39.8891 6.25 35.2227C6.25 25.898 14.0201 18.2227 23.75 18.2227C33.4799 18.2227 41.25 25.898 41.25 35.2227C41.25 39.9495 39.2534 44.2525 36.017 47.3467C31.5519 44.2817 27.6746 42.5955 23.7264 42.5352C19.8031 42.4753 15.8968 44.0215 11.3597 47.2276ZM23.75 52.2227C19.2649 52.2227 15.1963 50.5918 12.1131 47.9203C16.4809 44.8651 20.1302 43.4804 23.7111 43.5351C27.3197 43.5902 30.9447 45.1075 35.2525 48.0355C32.186 50.6386 28.1702 52.2227 23.75 52.2227ZM47.7539 52.3955L47.5234 52.6455H47.8635L48.094 52.3955H47.7539ZM45.3174 44.9463C45.3174 44.8618 45.3193 44.7785 45.3232 44.6963H45.3174V44.9463Z" fill="#005BAC" stroke="#005BAC" stroke-width="0.5" stroke-linejoin="bevel"/>
</svg>
